<svg width="60" height="32" viewBox="0 0 60 32" fill="none" xmlns="http://www.w3.org/2000/svg">
<path d="M23.3253 21.694C22.5122 27.1353 19.5309 30.552 15.601 30.6152C14.7201 30.9948 13.7715 31.2479 12.8229 31.2479C9.0285 31.2479 5.23409 28.2109 2.32053 22.9595C-1.6094 15.8731 0.626592 5.0538 0.69435 4.61091C0.762107 4.23128 1.23641 3.9782 1.64295 4.16801C1.91398 4.29455 5.84391 5.9396 9.84159 8.78678C11.2645 5.9396 13.0939 3.21895 14.8556 1.13101C14.9912 1.00447 15.1944 0.87793 15.3977 0.87793C15.601 0.87793 15.8042 1.00447 15.9398 1.13101C17.0916 2.4597 18.7178 4.73745 20.073 7.14174C24.6127 4.35783 30.101 3.21895 30.7786 3.09241H30.8464C30.9141 3.09241 31.6595 3.02914 31.6595 3.66185C31.6595 4.04147 31.5239 13.279 26.9842 18.4672C25.7646 19.7959 24.5449 20.8715 23.3253 21.694Z" fill="#E9D4C6"/>
<path d="M23.3253 21.694C22.5122 27.1353 19.5309 30.552 15.601 30.6152C14.7201 30.9948 13.7715 31.2479 12.8229 31.2479C9.0285 31.2479 5.23409 28.2109 2.32053 22.9595C-1.6094 15.8731 0.626592 5.0538 0.69435 4.61091C0.762107 4.23128 1.23641 3.9782 1.64295 4.16801C1.91398 4.29455 5.84391 5.9396 9.84159 8.78678C11.2645 5.9396 13.0939 3.21895 14.8556 1.13101C14.9912 1.00447 15.1944 0.87793 15.3977 0.87793C15.601 0.87793 15.8042 1.00447 15.9398 1.13101C17.0916 2.4597 18.7178 4.73745 20.073 7.14174C24.6127 4.35783 30.101 3.21895 30.7786 3.09241H30.8464C30.9141 3.09241 31.6595 3.02914 31.6595 3.66185C31.6595 4.04147 31.5239 13.279 26.9842 18.4672C25.7646 19.7959 24.5449 20.8715 23.3253 21.694ZM25.9001 17.6447C28.3393 14.8608 29.4235 10.6849 29.8978 7.64791C28.5426 10.3686 26.3744 14.1648 23.5286 17.2651C23.5963 18.0876 23.5963 19.0367 23.5286 19.9225C24.3417 19.2897 25.087 18.5305 25.9001 17.6447ZM23.3253 15.4935C26.2389 11.9503 28.4071 7.64791 29.4912 5.30689C27.594 6.50903 24.6805 8.5337 21.9702 11.0013C22.58 12.3932 23.0543 14.0383 23.3253 15.4935ZM17.9047 22.39C18.7178 16.5691 17.2949 9.35622 15.4655 3.66185V3.59858C13.1617 10.7482 10.7902 22.9595 15.4655 28.9702C15.4655 28.9069 17.2949 26.8822 17.9047 22.39ZM3.4724 22.39C6.04718 27.0721 9.29953 29.7927 12.4841 29.9825C10.5869 29.0335 9.29953 27.2619 8.48645 25.3005C8.28317 24.731 4.21773 20.3653 1.50744 8.72351C1.16865 12.5198 1.16865 18.2141 3.4724 22.39ZM8.14766 12.8994C5.97942 10.1787 3.81119 7.96426 2.38828 6.57231C3.06586 9.67258 4.55652 15.8731 7.40233 21.1246C6.99578 17.8978 7.26681 15.4935 8.14766 12.8994ZM4.75979 7.14174C5.91167 8.34389 7.26681 9.79912 8.62196 11.4442C8.82523 10.938 9.0285 10.4318 9.23178 9.98893C7.74111 8.78678 6.11494 7.83772 4.75979 7.14174ZM8.62196 18.0876C8.62196 22.2002 9.70608 27.8946 13.907 29.16C9.63832 22.9595 11.5355 12.0769 13.636 4.99053C11.1967 8.5337 8.62196 13.8485 8.62196 18.0876ZM16.9561 29.16C22.2412 27.6415 23.2575 18.4672 21.1571 12.583C20.2085 9.98893 18.7856 7.39483 17.2949 5.11708C19.3276 12.2034 21.1571 22.9595 16.9561 29.16ZM21.4281 9.73585C23.3253 8.02753 25.358 6.50903 27.052 5.37016C25.1548 6.00287 22.7832 6.95193 20.7505 8.21735C20.7505 8.34389 21.1571 9.03987 21.4281 9.73585Z" fill="black"/>
<path d="M50.2591 32.0001H25.0311C19.7637 32.0001 15.5128 28.204 15.5128 23.5001C15.5128 18.7962 19.7637 15.0001 25.0311 15.0001H50.2591C55.5265 15.0001 59.7774 18.7962 59.7774 23.5001C59.7774 28.204 55.5265 32.0001 50.2591 32.0001Z" fill="#6DCBBA"/>
<path d="M22.869 21.6101C22.7443 21.6541 22.5207 21.7128 22.198 21.7861C21.8753 21.8521 21.6223 21.8961 21.439 21.9181L21.318 21.1481C21.714 21.0675 22.1247 20.9244 22.55 20.7191C22.9827 20.5064 23.3347 20.2864 23.606 20.0591H23.617L24.486 20.1801V26.2301L25.74 26.3511V27.0001H21.549V26.3511L22.869 26.2411V21.6101Z" fill="black"/>
<path d="M29.4581 27.1101C28.5194 27.1101 27.8008 26.7984 27.3021 26.1751C26.8108 25.5444 26.5651 24.6901 26.5651 23.6121C26.5651 22.8494 26.7081 22.2041 26.9941 21.6761C27.2801 21.1408 27.6578 20.7411 28.1271 20.4771C28.6038 20.2058 29.1318 20.0701 29.7111 20.0701C30.6571 20.0701 31.3684 20.3708 31.8451 20.9721C32.3218 21.5661 32.5601 22.4094 32.5601 23.5021C32.5601 24.2574 32.4208 24.9101 32.1421 25.4601C31.8708 26.0028 31.5004 26.4134 31.0311 26.6921C30.5618 26.9708 30.0374 27.1101 29.4581 27.1101ZM29.5681 26.4501C30.0301 26.4501 30.3674 26.2155 30.5801 25.7461C30.8001 25.2694 30.9101 24.5618 30.9101 23.6231C30.9101 22.6258 30.8074 21.8961 30.6021 21.4341C30.4041 20.9648 30.0631 20.7301 29.5791 20.7301C28.6698 20.7301 28.2151 21.6504 28.2151 23.4911C28.2151 24.4738 28.3214 25.2144 28.5341 25.7131C28.7541 26.2044 29.0988 26.4501 29.5681 26.4501Z" fill="black"/>
<path d="M36.6876 27.1101C35.7489 27.1101 35.0302 26.7984 34.5316 26.1751C34.0402 25.5444 33.7946 24.6901 33.7946 23.6121C33.7946 22.8494 33.9376 22.2041 34.2236 21.6761C34.5096 21.1408 34.8872 20.7411 35.3566 20.4771C35.8332 20.2058 36.3612 20.0701 36.9406 20.0701C37.8866 20.0701 38.5979 20.3708 39.0746 20.9721C39.5512 21.5661 39.7896 22.4094 39.7896 23.5021C39.7896 24.2574 39.6502 24.9101 39.3716 25.4601C39.1002 26.0028 38.7299 26.4134 38.2606 26.6921C37.7912 26.9708 37.2669 27.1101 36.6876 27.1101ZM36.7976 26.4501C37.2596 26.4501 37.5969 26.2155 37.8096 25.7461C38.0296 25.2694 38.1396 24.5618 38.1396 23.6231C38.1396 22.6258 38.0369 21.8961 37.8316 21.4341C37.6336 20.9648 37.2926 20.7301 36.8086 20.7301C35.8992 20.7301 35.4446 21.6504 35.4446 23.4911C35.4446 24.4738 35.5509 25.2144 35.7636 25.7131C35.9836 26.2044 36.3282 26.4501 36.7976 26.4501Z" fill="black"/>
<path d="M47.4811 18.7391H48.5041L44.9731 27.0001H43.9611L47.4811 18.7391ZM42.9931 23.5351C42.5604 23.5351 42.1901 23.4324 41.8821 23.2271C41.5741 23.0218 41.3394 22.7431 41.1781 22.3911C41.0167 22.0391 40.9361 21.6505 40.9361 21.2251C40.9361 20.7338 41.0351 20.3084 41.2331 19.9491C41.4311 19.5824 41.6987 19.3038 42.0361 19.1131C42.3807 18.9225 42.7621 18.8271 43.1801 18.8271C43.8914 18.8271 44.4121 19.0398 44.7421 19.4651C45.0794 19.8905 45.2481 20.4551 45.2481 21.1591C45.2481 21.6505 45.1454 22.0758 44.9401 22.4351C44.7421 22.7944 44.4707 23.0694 44.1261 23.2601C43.7814 23.4434 43.4037 23.5351 42.9931 23.5351ZM43.0811 22.8751C43.3891 22.8751 43.6127 22.7284 43.7521 22.4351C43.8987 22.1344 43.9721 21.7238 43.9721 21.2031C43.9721 20.7044 43.9024 20.2974 43.7631 19.9821C43.6311 19.6594 43.4147 19.4981 43.1141 19.4981C42.8134 19.4981 42.5897 19.6448 42.4431 19.9381C42.2964 20.2314 42.2231 20.6384 42.2231 21.1591C42.2231 21.6285 42.2927 22.0318 42.4321 22.3691C42.5714 22.7064 42.7877 22.8751 43.0811 22.8751ZM49.2961 26.8461C48.8707 26.8461 48.5004 26.7434 48.1851 26.5381C47.8771 26.3254 47.6424 26.0468 47.4811 25.7021C47.3197 25.3501 47.2391 24.9614 47.2391 24.5361C47.2391 24.0448 47.3381 23.6194 47.5361 23.2601C47.7341 22.8934 48.0054 22.6148 48.3501 22.4241C48.6947 22.2334 49.0761 22.1381 49.4941 22.1381C50.1981 22.1381 50.7151 22.3508 51.0451 22.7761C51.3824 23.2014 51.5511 23.7661 51.5511 24.4701C51.5511 24.9614 51.4484 25.3868 51.2431 25.7461C51.0451 26.1054 50.7737 26.3804 50.4291 26.5711C50.0844 26.7544 49.7067 26.8461 49.2961 26.8461ZM49.3841 26.1751C49.6921 26.1751 49.9157 26.0285 50.0551 25.7351C50.2017 25.4418 50.2751 25.0348 50.2751 24.5141C50.2751 24.0228 50.2054 23.6158 50.0661 23.2931C49.9341 22.9704 49.7214 22.8091 49.4281 22.8091C49.1201 22.8091 48.8927 22.9558 48.7461 23.2491C48.5994 23.5425 48.5261 23.9494 48.5261 24.4701C48.5261 24.9394 48.5957 25.3428 48.7351 25.6801C48.8744 26.0101 49.0907 26.1751 49.3841 26.1751Z" fill="black"/>
</svg>
